<svg width="219" height="232" viewBox="0 0 219 232" fill="none" xmlns="http://www.w3.org/2000/svg">
<path d="M136 26C136 40.3594 124.359 52 110 52C95.6406 52 84 40.3594 84 26C84 11.6406 95.6406 -8.13922e-06 110 -8.13922e-06C124.359 -8.13922e-06 136 11.6406 136 26Z" fill="#223A66"/>
<path d="M205 26C205 40.3594 193.359 52 179 52C164.641 52 153 40.3594 153 26C153 11.6406 164.641 -8.13922e-06 179 -8.13922e-06C193.359 -8.13922e-06 205 11.6406 205 26Z" fill="#223A66"/>
<path d="M68 26C68 40.3594 56.3594 52 42 52C27.6406 52 16 40.3594 16 26C16 11.6406 27.6406 -8.13922e-06 42 -8.13922e-06C56.3594 -8.13922e-06 68 11.6406 68 26Z" fill="#223A66"/>
<path d="M152.824 61.3076H161.13C183.771 61.3076 197.306 68.998 201.735 84.3789C203.15 89.3623 203.858 95.1147 203.858 101.636V187H152.824V61.3076ZM84.3486 61.3076H135.659V187H84.3486V61.3076ZM15.6885 61.3076H66.999V187H15.6885V61.3076Z" fill="#D4275D"/>
</svg>
