<svg xmlns="http://www.w3.org/2000/svg" xmlns:xlink="http://www.w3.org/1999/xlink" width="212" zoomAndPan="magnify" viewBox="0 0 159 44.999999" height="60" preserveAspectRatio="xMidYMid meet" version="1.0"><path fill="#223a66" d="M 24.96875 5.671875 C 24.96875 7.480469 23.5 8.949219 21.6875 8.949219 C 19.878906 8.949219 18.410156 7.480469 18.410156 5.671875 C 18.410156 3.863281 19.878906 2.394531 21.6875 2.394531 C 23.5 2.394531 24.96875 3.863281 24.96875 5.671875 Z M 24.96875 5.671875 " fill-opacity="1" fill-rule="nonzero"/><path fill="#223a66" d="M 33.675781 5.671875 C 33.675781 7.480469 32.207031 8.949219 30.394531 8.949219 C 28.585938 8.949219 27.113281 7.480469 27.113281 5.671875 C 27.113281 3.863281 28.585938 2.394531 30.394531 2.394531 C 32.207031 2.394531 33.675781 3.863281 33.675781 5.671875 Z M 33.675781 5.671875 " fill-opacity="1" fill-rule="nonzero"/><path fill="#223a66" d="M 16.261719 5.671875 C 16.261719 7.480469 14.792969 8.949219 12.984375 8.949219 C 11.171875 8.949219 9.703125 7.480469 9.703125 5.671875 C 9.703125 3.863281 11.171875 2.394531 12.984375 2.394531 C 14.792969 2.394531 16.261719 3.863281 16.261719 5.671875 Z M 16.261719 5.671875 " fill-opacity="1" fill-rule="nonzero"/><path fill="#d4275d" d="M 27.039062 10.121094 L 28.085938 10.121094 C 30.945312 10.121094 32.652344 11.09375 33.210938 13.03125 C 33.390625 13.660156 33.480469 14.382812 33.480469 15.207031 L 33.480469 25.964844 L 27.039062 25.964844 Z M 18.398438 10.121094 L 24.875 10.121094 L 24.875 25.964844 L 18.398438 25.964844 Z M 9.734375 10.121094 L 16.210938 10.121094 L 16.210938 25.964844 L 9.734375 25.964844 Z M 45.34375 10.132812 L 46.253906 10.132812 C 49.132812 10.132812 51.035156 11.417969 51.960938 13.984375 C 52.332031 15.039062 52.519531 16.253906 52.519531 17.625 C 52.519531 19.9375 52.070312 21.839844 51.179688 23.335938 C 50.125 25.089844 48.480469 25.964844 46.253906 25.964844 L 45.34375 25.964844 Z M 42.539062 25.964844 C 39.675781 25.964844 37.777344 24.515625 36.84375 21.617188 C 36.464844 20.4375 36.273438 19.105469 36.273438 17.625 C 36.273438 14.609375 37.113281 12.480469 38.789062 11.238281 C 39.773438 10.503906 41.023438 10.132812 42.539062 10.132812 L 43.445312 10.132812 L 43.445312 25.964844 Z M 68.65625 10.132812 L 73.875 10.132812 L 73.875 16.707031 L 72.570312 16.707031 C 71.714844 16.707031 71.085938 16.617188 70.683594 16.4375 C 70.28125 16.253906 69.960938 16.046875 69.730469 15.824219 C 69.503906 15.589844 69.308594 15.289062 69.148438 14.914062 C 68.820312 14.15625 68.65625 13.101562 68.65625 11.75 Z M 61.125 10.132812 L 67.386719 10.132812 L 67.386719 25.964844 L 61.125 25.964844 Z M 54.601562 10.132812 L 59.820312 10.132812 L 59.820312 11.75 C 59.820312 13.746094 59.457031 15.101562 58.738281 15.824219 C 58.144531 16.414062 57.203125 16.707031 55.90625 16.707031 L 54.601562 16.707031 Z M 76.679688 10.132812 L 82.945312 10.132812 L 82.945312 18.054688 L 85.214844 18.054688 L 85.214844 10.132812 L 91.480469 10.132812 L 91.480469 25.941406 L 85.214844 25.941406 L 85.214844 19.8125 L 82.945312 19.8125 L 82.945312 25.941406 L 76.679688 25.941406 Z M 102.859375 10.132812 L 109.320312 10.132812 L 109.320312 14.53125 L 108.109375 14.53125 C 106.003906 14.53125 104.570312 14.203125 103.800781 13.542969 C 103.171875 13 102.859375 12.125 102.859375 10.914062 Z M 94.578125 10.132812 L 100.84375 10.132812 L 100.84375 16.507812 L 105.511719 16.507812 L 105.511719 19.546875 L 100.84375 19.546875 L 100.84375 25.941406 L 94.578125 25.941406 Z M 102.847656 24.839844 C 102.847656 23.234375 103.777344 22.144531 105.640625 21.570312 C 106.355469 21.351562 107.273438 21.242188 108.402344 21.242188 L 109.320312 21.242188 L 109.320312 25.964844 L 102.847656 25.964844 Z M 127.101562 15.054688 C 127.101562 17.398438 126.078125 18.9375 124.027344 19.671875 C 125.175781 20.101562 126.042969 20.792969 126.625 21.753906 C 127.128906 22.609375 127.378906 23.601562 127.378906 24.734375 L 127.378906 25.964844 L 120.441406 25.964844 L 120.441406 10.109375 L 121.046875 10.109375 C 123.097656 10.109375 124.605469 10.5 125.578125 11.273438 C 126.59375 12.089844 127.101562 13.347656 127.101562 15.054688 Z M 112.242188 10.132812 L 118.507812 10.132812 L 118.507812 25.964844 L 112.242188 25.964844 Z M 112.242188 10.132812 " fill-opacity="1" fill-rule="nonzero"/><path fill="#223a66" d="M 17.132812 41.21875 L 17.132812 29.738281 L 19.164062 29.738281 L 19.164062 41.21875 Z M 9.722656 41.21875 L 9.722656 29.738281 L 11.738281 29.738281 L 11.738281 41.21875 Z M 10.65625 36.277344 L 10.65625 34.414062 L 18.234375 34.414062 L 18.234375 36.277344 Z M 26.210938 41.402344 C 25.191406 41.402344 24.285156 41.167969 23.496094 40.703125 C 22.71875 40.226562 22.109375 39.542969 21.664062 38.65625 C 21.230469 37.769531 21.015625 36.710938 21.015625 35.476562 C 21.015625 34.234375 21.230469 33.175781 21.664062 32.300781 C 22.109375 31.414062 22.71875 30.734375 23.496094 30.269531 C 24.285156 29.792969 25.191406 29.554688 26.210938 29.554688 C 27.246094 29.554688 28.148438 29.792969 28.925781 30.269531 C 29.703125 30.734375 30.308594 31.414062 30.742188 32.300781 C 31.1875 33.175781 31.40625 34.234375 31.40625 35.476562 C 31.40625 36.710938 31.1875 37.769531 30.742188 38.65625 C 30.308594 39.542969 29.703125 40.226562 28.925781 40.703125 C 28.148438 41.167969 27.246094 41.402344 26.210938 41.402344 Z M 26.210938 39.519531 C 27.167969 39.519531 27.921875 39.175781 28.476562 38.488281 C 29.042969 37.789062 29.324219 36.785156 29.324219 35.476562 C 29.324219 34.15625 29.042969 33.152344 28.476562 32.464844 C 27.921875 31.777344 27.167969 31.433594 26.210938 31.433594 C 25.257812 31.433594 24.5 31.777344 23.945312 32.464844 C 23.390625 33.152344 23.113281 34.15625 23.113281 35.476562 C 23.113281 36.785156 23.390625 37.789062 23.945312 38.488281 C 24.5 39.175781 25.257812 39.519531 26.210938 39.519531 Z M 37.121094 41.402344 C 35.945312 41.402344 34.96875 41.140625 34.191406 40.621094 C 33.425781 40.085938 32.886719 39.332031 32.574219 38.355469 L 34.554688 37.707031 C 34.765625 38.351562 35.09375 38.828125 35.539062 39.136719 C 35.996094 39.449219 36.570312 39.605469 37.269531 39.605469 C 37.972656 39.605469 38.507812 39.476562 38.886719 39.222656 C 39.265625 38.964844 39.453125 38.640625 39.453125 38.238281 C 39.453125 37.839844 39.335938 37.523438 39.105469 37.292969 C 38.871094 37.046875 38.558594 36.847656 38.171875 36.691406 C 37.78125 36.527344 37.355469 36.382812 36.886719 36.261719 C 36.421875 36.136719 35.957031 36 35.488281 35.84375 C 35.035156 35.6875 34.613281 35.488281 34.222656 35.246094 C 33.835938 35 33.519531 34.683594 33.273438 34.296875 C 33.039062 33.910156 32.925781 33.414062 32.925781 32.816406 C 32.925781 32.195312 33.085938 31.640625 33.40625 31.152344 C 33.742188 30.652344 34.21875 30.265625 34.839844 29.988281 C 35.460938 29.699219 36.214844 29.554688 37.105469 29.554688 C 38.183594 29.554688 39.09375 29.808594 39.835938 30.320312 C 40.582031 30.820312 41.101562 31.527344 41.402344 32.449219 L 39.488281 33.097656 C 39.277344 32.5 38.953125 32.0625 38.519531 31.785156 C 38.097656 31.496094 37.566406 31.351562 36.921875 31.351562 C 36.234375 31.351562 35.734375 31.480469 35.421875 31.734375 C 35.113281 31.988281 34.957031 32.289062 34.957031 32.632812 C 34.957031 32.976562 35.074219 33.253906 35.304688 33.464844 C 35.550781 33.675781 35.867188 33.851562 36.253906 33.996094 C 36.644531 34.128906 37.070312 34.257812 37.539062 34.378906 C 38.003906 34.503906 38.46875 34.644531 38.9375 34.8125 C 39.402344 34.980469 39.832031 35.195312 40.21875 35.460938 C 40.609375 35.726562 40.917969 36.070312 41.152344 36.492188 C 41.398438 36.914062 41.519531 37.445312 41.519531 38.089844 C 41.519531 38.722656 41.339844 39.292969 40.984375 39.804688 C 40.640625 40.304688 40.140625 40.695312 39.488281 40.984375 C 38.832031 41.261719 38.042969 41.402344 37.121094 41.402344 Z M 44.242188 37.375 L 44.242188 35.511719 L 47.507812 35.511719 C 48.339844 35.511719 48.949219 35.34375 49.339844 35.011719 C 49.726562 34.679688 49.921875 34.191406 49.921875 33.546875 C 49.921875 32.90625 49.726562 32.421875 49.339844 32.101562 C 48.949219 31.769531 48.339844 31.601562 47.507812 31.601562 L 44.242188 31.601562 L 44.242188 29.738281 L 47.675781 29.738281 C 48.574219 29.738281 49.34375 29.894531 49.988281 30.203125 C 50.644531 30.515625 51.144531 30.957031 51.488281 31.535156 C 51.832031 32.101562 52.003906 32.773438 52.003906 33.546875 C 52.003906 34.335938 51.832031 35.019531 51.488281 35.59375 C 51.144531 36.160156 50.644531 36.597656 49.988281 36.910156 C 49.34375 37.21875 48.574219 37.375 47.675781 37.375 Z M 43.308594 41.21875 L 43.308594 29.738281 L 45.324219 29.738281 L 45.324219 41.21875 Z M 53.621094 41.21875 L 53.621094 29.738281 L 55.636719 29.738281 L 55.636719 41.21875 Z M 60.679688 41.21875 L 60.679688 29.738281 L 62.695312 29.738281 L 62.695312 41.21875 Z M 57.132812 31.601562 L 57.132812 29.738281 L 66.257812 29.738281 L 66.257812 31.601562 Z M 74.488281 41.21875 L 70.757812 29.738281 L 72.757812 29.738281 L 76.636719 41.21875 Z M 65.894531 41.21875 L 69.777344 29.738281 L 71.625 29.738281 L 67.992188 41.21875 Z M 68.195312 38.222656 L 68.195312 36.394531 L 74.324219 36.394531 L 74.324219 38.222656 Z M 77.988281 41.21875 L 77.988281 29.738281 L 80.003906 29.738281 L 80.003906 41.21875 Z M 78.921875 41.21875 L 78.921875 39.355469 L 85.332031 39.355469 L 85.332031 41.21875 Z M 93.296875 41.402344 C 92.472656 41.402344 91.785156 41.269531 91.230469 41.003906 C 90.6875 40.734375 90.277344 40.386719 89.996094 39.953125 C 89.730469 39.519531 89.597656 39.042969 89.597656 38.523438 C 89.597656 37.890625 89.726562 37.359375 89.980469 36.925781 C 90.246094 36.480469 90.585938 36.109375 90.996094 35.8125 C 91.40625 35.5 91.839844 35.230469 92.296875 34.996094 C 92.761719 34.761719 93.195312 34.53125 93.59375 34.296875 C 94.007812 34.0625 94.339844 33.804688 94.59375 33.515625 C 94.859375 33.226562 94.996094 32.867188 94.996094 32.433594 C 94.996094 32.101562 94.871094 31.8125 94.628906 31.566406 C 94.394531 31.324219 94.09375 31.203125 93.730469 31.203125 C 93.328125 31.203125 93.007812 31.328125 92.761719 31.585938 C 92.519531 31.828125 92.394531 32.128906 92.394531 32.484375 C 92.394531 32.816406 92.46875 33.121094 92.613281 33.398438 C 92.757812 33.664062 92.972656 33.964844 93.261719 34.296875 L 99.324219 41.21875 L 96.84375 41.21875 L 92.144531 35.777344 C 91.582031 35.113281 91.15625 34.535156 90.878906 34.046875 C 90.613281 33.558594 90.480469 33.054688 90.480469 32.53125 C 90.480469 32.011719 90.613281 31.527344 90.878906 31.085938 C 91.148438 30.628906 91.523438 30.265625 92.011719 29.988281 C 92.5 29.699219 93.078125 29.554688 93.746094 29.554688 C 94.378906 29.554688 94.929688 29.683594 95.394531 29.9375 C 95.859375 30.191406 96.222656 30.53125 96.476562 30.953125 C 96.730469 31.375 96.859375 31.835938 96.859375 32.332031 C 96.859375 32.898438 96.730469 33.382812 96.476562 33.78125 C 96.234375 34.179688 95.90625 34.519531 95.496094 34.796875 C 95.09375 35.074219 94.667969 35.328125 94.210938 35.5625 C 93.769531 35.78125 93.34375 36.015625 92.945312 36.261719 C 92.546875 36.492188 92.21875 36.769531 91.964844 37.09375 C 91.707031 37.402344 91.582031 37.789062 91.582031 38.257812 C 91.582031 38.679688 91.730469 39.023438 92.03125 39.289062 C 92.328125 39.554688 92.785156 39.6875 93.394531 39.6875 C 94.085938 39.6875 94.695312 39.515625 95.226562 39.171875 C 95.773438 38.828125 96.222656 38.339844 96.578125 37.707031 C 96.941406 37.074219 97.1875 36.320312 97.308594 35.445312 L 99.109375 35.84375 C 98.910156 36.996094 98.53125 37.992188 97.976562 38.824219 C 97.421875 39.65625 96.742188 40.292969 95.945312 40.734375 C 95.144531 41.179688 94.261719 41.402344 93.296875 41.402344 Z M 104.0625 41.21875 L 104.0625 29.738281 L 106.078125 29.738281 L 106.078125 41.21875 Z M 111.300781 41.21875 L 107.421875 29.738281 L 109.554688 29.738281 L 113.316406 41.21875 Z M 112.402344 41.21875 L 116.066406 29.738281 L 118.164062 29.738281 L 114.285156 41.21875 Z M 119.515625 41.21875 L 119.515625 29.738281 L 121.527344 29.738281 L 121.527344 41.21875 Z M 120.445312 36.59375 L 120.445312 34.761719 L 126.757812 34.761719 L 126.757812 36.59375 Z M 120.445312 31.601562 L 120.445312 29.738281 L 127.425781 29.738281 L 127.425781 31.601562 Z M 120.445312 31.601562 " fill-opacity="1" fill-rule="nonzero"/></svg>