<svg width="1080" height="357" viewBox="0 0 1080 357" fill="none" xmlns="http://www.w3.org/2000/svg">
<path d="M197 45C197 59.3594 185.359 71 171 71C156.641 71 145 59.3594 145 45C145 30.6406 156.641 19 171 19C185.359 19 197 30.6406 197 45Z" fill="#223A66"/>
<path d="M266 45C266 59.3594 254.359 71 240 71C225.641 71 214 59.3594 214 45C214 30.6406 225.641 19 240 19C254.359 19 266 30.6406 266 45Z" fill="#223A66"/>
<path d="M128 45C128 59.3594 116.359 71 102 71C87.6406 71 76 59.3594 76 45C76 30.6406 87.6406 19 102 19C116.359 19 128 30.6406 128 45Z" fill="#223A66"/>
<path d="M213.403 80.3076H221.708C244.349 80.3076 257.884 87.998 262.314 103.379C263.729 108.362 264.437 114.115 264.437 120.636V206H213.403V80.3076ZM144.927 80.3076H196.238V206H144.927V80.3076ZM76.2671 80.3076H127.578V206H76.2671V80.3076ZM358.475 80.3999H365.673C388.499 80.3999 403.572 90.582 410.893 110.946C413.846 119.313 415.323 128.942 415.323 139.832C415.323 158.166 411.785 173.27 404.71 185.144C396.343 199.048 383.331 206 365.673 206H358.475V80.3999ZM336.234 206C313.532 206 298.49 194.495 291.107 171.485C288.092 162.134 286.585 151.583 286.585 139.832C286.585 115.899 293.229 99.0107 306.519 89.167C314.332 83.3223 324.237 80.3999 336.234 80.3999H343.433V206H336.234ZM543.23 80.3999H584.574V132.541H574.238C567.47 132.541 562.487 131.833 559.288 130.418C556.088 128.942 553.566 127.312 551.72 125.527C549.936 123.682 548.398 121.282 547.106 118.329C544.522 112.3 543.23 103.933 543.23 93.2275V80.3999ZM483.521 80.3999H533.171V206H483.521V80.3999ZM431.842 80.3999H473.186V93.2275C473.186 109.039 470.325 119.806 464.603 125.527C459.927 130.203 452.452 132.541 442.178 132.541H431.842V80.3999ZM606.814 80.3999H656.464V143.246H674.459V80.3999H724.109V205.815H674.459V157.181H656.464V205.815H606.814V80.3999ZM814.271 80.3999H865.49V115.284H855.892C839.219 115.284 827.837 112.669 821.747 107.439C816.763 103.133 814.271 96.1807 814.271 86.583V80.3999ZM748.657 80.3999H798.306V130.972H835.312V155.059H798.306V205.815H748.657V80.3999ZM814.179 197.048C814.179 184.313 821.562 175.669 836.328 171.116C841.988 169.394 849.278 168.532 858.199 168.532H865.49V206H814.179V197.048ZM1006.41 119.437C1006.41 138.017 998.288 150.229 982.046 156.074C991.151 159.458 998.011 164.964 1002.63 172.593C1006.62 179.36 1008.62 187.235 1008.62 196.218V206H953.622V80.2153H958.421C974.663 80.2153 986.629 83.2915 994.32 89.4438C1002.38 95.9038 1006.41 105.901 1006.41 119.437ZM888.653 80.3999H938.303V206H888.653V80.3999Z" fill="#D4275D"/>
<path d="M134.897 327V235.92H151.001V327H134.897ZM76.1572 327V235.92H92.1292V327H76.1572ZM83.5492 287.796V273.012H143.609V287.796H83.5492ZM206.838 328.452C198.742 328.452 191.57 326.604 185.322 322.908C179.162 319.124 174.322 313.712 170.802 306.672C167.37 299.632 165.654 291.228 165.654 281.46C165.654 271.604 167.37 263.2 170.802 256.248C174.322 249.208 179.162 243.84 185.322 240.144C191.57 236.36 198.742 234.468 206.838 234.468C215.022 234.468 222.194 236.36 228.354 240.144C234.514 243.84 239.31 249.208 242.742 256.248C246.262 263.2 248.022 271.604 248.022 281.46C248.022 291.228 246.262 299.632 242.742 306.672C239.31 313.712 234.514 319.124 228.354 322.908C222.194 326.604 215.022 328.452 206.838 328.452ZM206.838 313.536C214.406 313.536 220.39 310.808 224.79 305.352C229.278 299.808 231.522 291.844 231.522 281.46C231.522 270.988 229.278 263.024 224.79 257.568C220.39 252.112 214.406 249.384 206.838 249.384C199.27 249.384 193.286 252.112 188.886 257.568C184.486 263.024 182.286 270.988 182.286 281.46C182.286 291.844 184.486 299.808 188.886 305.352C193.286 310.808 199.27 313.536 206.838 313.536ZM293.302 328.452C283.974 328.452 276.23 326.384 270.07 322.248C263.998 318.024 259.73 312.04 257.266 304.296L272.974 299.148C274.646 304.252 277.242 308.036 280.762 310.5C284.37 312.964 288.946 314.196 294.49 314.196C300.034 314.196 304.302 313.184 307.294 311.16C310.286 309.136 311.782 306.54 311.782 303.372C311.782 300.204 310.858 297.696 309.01 295.848C307.162 293.912 304.698 292.328 301.618 291.096C298.538 289.776 295.15 288.632 291.454 287.664C287.758 286.696 284.062 285.596 280.366 284.364C276.758 283.132 273.414 281.548 270.334 279.612C267.254 277.676 264.746 275.168 262.81 272.088C260.962 269.008 260.038 265.092 260.038 260.34C260.038 255.412 261.314 251.012 263.866 247.14C266.506 243.18 270.29 240.1 275.218 237.9C280.146 235.612 286.13 234.468 293.17 234.468C301.706 234.468 308.922 236.492 314.818 240.54C320.714 244.5 324.85 250.132 327.226 257.436L312.046 262.584C310.374 257.832 307.822 254.356 304.39 252.156C301.046 249.868 296.822 248.724 291.718 248.724C286.262 248.724 282.302 249.736 279.838 251.76C277.374 253.784 276.142 256.16 276.142 258.888C276.142 261.616 277.066 263.816 278.914 265.488C280.85 267.16 283.358 268.568 286.438 269.712C289.518 270.768 292.906 271.78 296.602 272.748C300.298 273.716 303.994 274.86 307.69 276.18C311.386 277.5 314.774 279.216 317.854 281.328C320.934 283.44 323.398 286.168 325.246 289.512C327.182 292.856 328.15 297.08 328.15 302.184C328.15 307.2 326.742 311.732 323.926 315.78C321.198 319.74 317.238 322.864 312.046 325.152C306.854 327.352 300.606 328.452 293.302 328.452ZM349.741 296.508V281.724H375.613C382.213 281.724 387.053 280.404 390.133 277.764C393.213 275.124 394.753 271.252 394.753 266.148C394.753 261.044 393.213 257.216 390.133 254.664C387.053 252.024 382.213 250.704 375.613 250.704H349.741V235.92H376.933C384.061 235.92 390.177 237.152 395.281 239.616C400.473 242.08 404.433 245.6 407.161 250.176C409.889 254.664 411.253 259.988 411.253 266.148C411.253 272.396 409.889 277.808 407.161 282.384C404.433 286.872 400.473 290.348 395.281 292.812C390.177 295.276 384.061 296.508 376.933 296.508H349.741ZM342.349 327V235.92H358.321V327H342.349ZM424.075 327V235.92H440.047V327H424.075ZM480.003 327V235.92H495.975V327H480.003ZM451.887 250.704V235.92H524.223V250.704H451.887ZM589.452 327L559.884 235.92H575.724L606.48 327H589.452ZM521.34 327L552.096 235.92H566.748L537.972 327H521.34ZM539.556 303.24V288.72H588.132V303.24H539.556ZM617.177 327V235.92H633.149V327H617.177ZM624.569 327V312.216H675.389V327H624.569ZM738.491 328.452C731.979 328.452 726.523 327.396 722.123 325.284C717.811 323.172 714.555 320.4 712.355 316.968C710.243 313.536 709.187 309.752 709.187 305.616C709.187 300.6 710.199 296.376 712.223 292.944C714.335 289.424 717.019 286.476 720.275 284.1C723.531 281.636 726.963 279.48 730.571 277.632C734.267 275.784 737.699 273.936 740.867 272.088C744.123 270.24 746.763 268.172 748.787 265.884C750.899 263.596 751.955 260.736 751.955 257.304C751.955 254.664 750.987 252.376 749.051 250.44C747.203 248.504 744.827 247.536 741.923 247.536C738.755 247.536 736.203 248.548 734.267 250.572C732.331 252.508 731.363 254.884 731.363 257.7C731.363 260.34 731.935 262.76 733.079 264.96C734.223 267.072 735.939 269.448 738.227 272.088L786.275 327H766.607L729.383 283.836C724.895 278.556 721.551 273.98 719.351 270.108C717.239 266.236 716.183 262.232 716.183 258.096C716.183 253.96 717.239 250.132 719.351 246.612C721.463 243.004 724.455 240.1 728.327 237.9C732.199 235.612 736.775 234.468 742.055 234.468C747.071 234.468 751.427 235.48 755.123 237.504C758.819 239.528 761.679 242.212 763.703 245.556C765.727 248.9 766.739 252.552 766.739 256.512C766.739 261 765.727 264.828 763.703 267.996C761.767 271.164 759.171 273.848 755.915 276.048C752.747 278.248 749.359 280.272 745.751 282.12C742.231 283.88 738.887 285.728 735.719 287.664C732.551 289.512 729.955 291.712 727.931 294.264C725.907 296.728 724.895 299.808 724.895 303.504C724.895 306.848 726.083 309.576 728.459 311.688C730.835 313.8 734.443 314.856 739.283 314.856C744.739 314.856 749.579 313.492 753.803 310.764C758.115 308.036 761.679 304.164 764.495 299.148C767.399 294.132 769.335 288.148 770.303 281.196L784.559 284.364C782.975 293.516 779.983 301.392 775.583 307.992C771.183 314.592 765.815 319.652 759.479 323.172C753.143 326.692 746.147 328.452 738.491 328.452ZM823.813 327V235.92H839.785V327H823.813ZM881.193 327L850.437 235.92H867.333L897.165 327H881.193ZM889.905 327L918.945 235.92H935.577L904.821 327H889.905ZM946.274 327V235.92H962.246V327H946.274ZM953.666 290.304V275.784H1003.69V290.304H953.666ZM953.666 250.704V235.92H1008.97V250.704H953.666Z" fill="#223A66"/>
</svg>
