<svg xmlns="http://www.w3.org/2000/svg" xmlns:xlink="http://www.w3.org/1999/xlink" width="212" zoomAndPan="magnify" viewBox="0 0 159 44.999999" height="60" preserveAspectRatio="xMidYMid meet" version="1.0"><path fill="#223a66" d="M 15.679688 5.671875 C 15.679688 7.480469 14.210938 8.949219 12.398438 8.949219 C 10.585938 8.949219 9.117188 7.480469 9.117188 5.671875 C 9.117188 3.863281 10.585938 2.394531 12.398438 2.394531 C 14.210938 2.394531 15.679688 3.863281 15.679688 5.671875 Z M 15.679688 5.671875 " fill-opacity="1" fill-rule="nonzero"/><path fill="#223a66" d="M 24.386719 5.671875 C 24.386719 7.480469 22.917969 8.949219 21.105469 8.949219 C 19.292969 8.949219 17.824219 7.480469 17.824219 5.671875 C 17.824219 3.863281 19.292969 2.394531 21.105469 2.394531 C 22.917969 2.394531 24.386719 3.863281 24.386719 5.671875 Z M 24.386719 5.671875 " fill-opacity="1" fill-rule="nonzero"/><path fill="#223a66" d="M 6.972656 5.671875 C 6.972656 7.480469 5.503906 8.949219 3.691406 8.949219 C 1.878906 8.949219 0.410156 7.480469 0.410156 5.671875 C 0.410156 3.863281 1.878906 2.394531 3.691406 2.394531 C 5.503906 2.394531 6.972656 3.863281 6.972656 5.671875 Z M 6.972656 5.671875 " fill-opacity="1" fill-rule="nonzero"/><path fill="#d4275d" d="M 17.75 10.121094 L 18.796875 10.121094 C 21.652344 10.121094 23.363281 11.09375 23.921875 13.03125 C 24.097656 13.660156 24.1875 14.382812 24.1875 15.207031 L 24.1875 25.964844 L 17.75 25.964844 Z M 9.109375 10.121094 L 15.582031 10.121094 L 15.582031 25.964844 L 9.109375 25.964844 Z M 0.445312 10.121094 L 6.917969 10.121094 L 6.917969 25.964844 L 0.445312 25.964844 Z M 36.054688 10.132812 L 36.960938 10.132812 C 39.84375 10.132812 41.746094 11.417969 42.667969 13.984375 C 43.042969 15.039062 43.226562 16.253906 43.226562 17.625 C 43.226562 19.9375 42.78125 21.839844 41.886719 23.335938 C 40.832031 25.089844 39.191406 25.964844 36.960938 25.964844 L 36.054688 25.964844 Z M 33.246094 25.964844 C 30.382812 25.964844 28.484375 24.515625 27.554688 21.617188 C 27.171875 20.4375 26.984375 19.105469 26.984375 17.625 C 26.984375 14.609375 27.820312 12.480469 29.5 11.238281 C 30.484375 10.503906 31.734375 10.132812 33.246094 10.132812 L 34.15625 10.132812 L 34.15625 25.964844 Z M 59.367188 10.132812 L 64.582031 10.132812 L 64.582031 16.707031 L 63.28125 16.707031 C 62.425781 16.707031 61.796875 16.617188 61.394531 16.4375 C 60.988281 16.253906 60.671875 16.046875 60.4375 15.824219 C 60.214844 15.589844 60.019531 15.289062 59.855469 14.914062 C 59.53125 14.15625 59.367188 13.101562 59.367188 11.75 Z M 51.832031 10.132812 L 58.097656 10.132812 L 58.097656 25.964844 L 51.832031 25.964844 Z M 45.3125 10.132812 L 50.527344 10.132812 L 50.527344 11.75 C 50.527344 13.746094 50.167969 15.101562 49.445312 15.824219 C 48.855469 16.414062 47.914062 16.707031 46.617188 16.707031 L 45.3125 16.707031 Z M 67.390625 10.132812 L 73.65625 10.132812 L 73.65625 18.054688 L 75.925781 18.054688 L 75.925781 10.132812 L 82.191406 10.132812 L 82.191406 25.941406 L 75.925781 25.941406 L 75.925781 19.8125 L 73.65625 19.8125 L 73.65625 25.941406 L 67.390625 25.941406 Z M 93.566406 10.132812 L 100.03125 10.132812 L 100.03125 14.53125 L 98.820312 14.53125 C 96.714844 14.53125 95.277344 14.203125 94.511719 13.542969 C 93.882812 13 93.566406 12.125 93.566406 10.914062 Z M 85.289062 10.132812 L 91.550781 10.132812 L 91.550781 16.507812 L 96.222656 16.507812 L 96.222656 19.546875 L 91.550781 19.546875 L 91.550781 25.941406 L 85.289062 25.941406 Z M 93.554688 24.839844 C 93.554688 23.234375 94.488281 22.144531 96.351562 21.570312 C 97.0625 21.351562 97.984375 21.242188 99.109375 21.242188 L 100.03125 21.242188 L 100.03125 25.964844 L 93.554688 25.964844 Z M 117.8125 15.054688 C 117.8125 17.398438 116.785156 18.9375 114.738281 19.671875 C 115.886719 20.101562 116.75 20.792969 117.335938 21.753906 C 117.835938 22.609375 118.089844 23.601562 118.089844 24.734375 L 118.089844 25.964844 L 111.148438 25.964844 L 111.148438 10.109375 L 111.753906 10.109375 C 113.804688 10.109375 115.316406 10.5 116.285156 11.273438 C 117.300781 12.089844 117.8125 13.347656 117.8125 15.054688 Z M 102.953125 10.132812 L 109.21875 10.132812 L 109.21875 25.964844 L 102.953125 25.964844 Z M 102.953125 10.132812 " fill-opacity="1" fill-rule="nonzero"/><path fill="#223a66" d="M 7.84375 41.21875 L 7.84375 29.738281 L 9.875 29.738281 L 9.875 41.21875 Z M 0.429688 41.21875 L 0.429688 29.738281 L 2.445312 29.738281 L 2.445312 41.21875 Z M 1.363281 36.277344 L 1.363281 34.414062 L 8.941406 34.414062 L 8.941406 36.277344 Z M 16.921875 41.402344 C 15.898438 41.402344 14.996094 41.167969 14.207031 40.703125 C 13.429688 40.226562 12.816406 39.542969 12.375 38.65625 C 11.941406 37.769531 11.722656 36.710938 11.722656 35.476562 C 11.722656 34.234375 11.941406 33.175781 12.375 32.300781 C 12.816406 31.414062 13.429688 30.734375 14.207031 30.269531 C 14.996094 29.792969 15.898438 29.554688 16.921875 29.554688 C 17.953125 29.554688 18.859375 29.792969 19.636719 30.269531 C 20.414062 30.734375 21.019531 31.414062 21.449219 32.300781 C 21.894531 33.175781 22.117188 34.234375 22.117188 35.476562 C 22.117188 36.710938 21.894531 37.769531 21.449219 38.65625 C 21.019531 39.542969 20.414062 40.226562 19.636719 40.703125 C 18.859375 41.167969 17.953125 41.402344 16.921875 41.402344 Z M 16.921875 39.519531 C 17.875 39.519531 18.628906 39.175781 19.1875 38.488281 C 19.753906 37.789062 20.035156 36.785156 20.035156 35.476562 C 20.035156 34.15625 19.753906 33.152344 19.1875 32.464844 C 18.628906 31.777344 17.875 31.433594 16.921875 31.433594 C 15.964844 31.433594 15.210938 31.777344 14.65625 32.464844 C 14.101562 33.152344 13.824219 34.15625 13.824219 35.476562 C 13.824219 36.785156 14.101562 37.789062 14.65625 38.488281 C 15.210938 39.175781 15.964844 39.519531 16.921875 39.519531 Z M 27.832031 41.402344 C 26.652344 41.402344 25.675781 41.140625 24.898438 40.621094 C 24.132812 40.085938 23.59375 39.332031 23.285156 38.355469 L 25.265625 37.707031 C 25.476562 38.351562 25.804688 38.828125 26.25 39.136719 C 26.703125 39.449219 27.28125 39.605469 27.980469 39.605469 C 28.679688 39.605469 29.21875 39.476562 29.597656 39.222656 C 29.972656 38.964844 30.164062 38.640625 30.164062 38.238281 C 30.164062 37.839844 30.046875 37.523438 29.8125 37.292969 C 29.578125 37.046875 29.269531 36.847656 28.878906 36.691406 C 28.492188 36.527344 28.0625 36.382812 27.597656 36.261719 C 27.132812 36.136719 26.664062 36 26.199219 35.84375 C 25.742188 35.6875 25.320312 35.488281 24.933594 35.246094 C 24.542969 35 24.226562 34.683594 23.984375 34.296875 C 23.75 33.910156 23.632812 33.414062 23.632812 32.816406 C 23.632812 32.195312 23.792969 31.640625 24.117188 31.152344 C 24.449219 30.652344 24.925781 30.265625 25.550781 29.988281 C 26.171875 29.699219 26.925781 29.554688 27.8125 29.554688 C 28.890625 29.554688 29.800781 29.808594 30.546875 30.320312 C 31.289062 30.820312 31.8125 31.527344 32.113281 32.449219 L 30.195312 33.097656 C 29.984375 32.5 29.664062 32.0625 29.230469 31.785156 C 28.808594 31.496094 28.273438 31.351562 27.632812 31.351562 C 26.941406 31.351562 26.441406 31.480469 26.132812 31.734375 C 25.820312 31.988281 25.664062 32.289062 25.664062 32.632812 C 25.664062 32.976562 25.78125 33.253906 26.015625 33.464844 C 26.257812 33.675781 26.574219 33.851562 26.964844 33.996094 C 27.351562 34.128906 27.78125 34.257812 28.246094 34.378906 C 28.714844 34.503906 29.179688 34.644531 29.644531 34.8125 C 30.113281 34.980469 30.539062 35.195312 30.929688 35.460938 C 31.316406 35.726562 31.628906 36.070312 31.863281 36.492188 C 32.105469 36.914062 32.226562 37.445312 32.226562 38.089844 C 32.226562 38.722656 32.050781 39.292969 31.695312 39.804688 C 31.351562 40.304688 30.851562 40.695312 30.195312 40.984375 C 29.539062 41.261719 28.753906 41.402344 27.832031 41.402344 Z M 34.953125 37.375 L 34.953125 35.511719 L 38.21875 35.511719 C 39.050781 35.511719 39.660156 35.34375 40.050781 35.011719 C 40.4375 34.679688 40.632812 34.191406 40.632812 33.546875 C 40.632812 32.90625 40.4375 32.421875 40.050781 32.101562 C 39.660156 31.769531 39.050781 31.601562 38.21875 31.601562 L 34.953125 31.601562 L 34.953125 29.738281 L 38.382812 29.738281 C 39.28125 29.738281 40.054688 29.894531 40.699219 30.203125 C 41.355469 30.515625 41.851562 30.957031 42.199219 31.535156 C 42.542969 32.101562 42.714844 32.773438 42.714844 33.546875 C 42.714844 34.335938 42.542969 35.019531 42.199219 35.59375 C 41.851562 36.160156 41.355469 36.597656 40.699219 36.910156 C 40.054688 37.21875 39.28125 37.375 38.382812 37.375 Z M 34.019531 41.21875 L 34.019531 29.738281 L 36.035156 29.738281 L 36.035156 41.21875 Z M 44.332031 41.21875 L 44.332031 29.738281 L 46.347656 29.738281 L 46.347656 41.21875 Z M 51.390625 41.21875 L 51.390625 29.738281 L 53.402344 29.738281 L 53.402344 41.21875 Z M 47.839844 31.601562 L 47.839844 29.738281 L 56.96875 29.738281 L 56.96875 31.601562 Z M 65.199219 41.21875 L 61.46875 29.738281 L 63.46875 29.738281 L 67.347656 41.21875 Z M 56.605469 41.21875 L 60.484375 29.738281 L 62.335938 29.738281 L 58.703125 41.21875 Z M 58.902344 38.222656 L 58.902344 36.394531 L 65.03125 36.394531 L 65.03125 38.222656 Z M 68.699219 41.21875 L 68.699219 29.738281 L 70.710938 29.738281 L 70.710938 41.21875 Z M 69.628906 41.21875 L 69.628906 39.355469 L 76.042969 39.355469 L 76.042969 41.21875 Z M 84.003906 41.402344 C 83.183594 41.402344 82.496094 41.269531 81.941406 41.003906 C 81.394531 40.734375 80.984375 40.386719 80.707031 39.953125 C 80.441406 39.519531 80.308594 39.042969 80.308594 38.523438 C 80.308594 37.890625 80.433594 37.359375 80.691406 36.925781 C 80.957031 36.480469 81.296875 36.109375 81.707031 35.8125 C 82.117188 35.5 82.550781 35.230469 83.003906 34.996094 C 83.472656 34.761719 83.90625 34.53125 84.304688 34.296875 C 84.714844 34.0625 85.046875 33.804688 85.304688 33.515625 C 85.570312 33.226562 85.703125 32.867188 85.703125 32.433594 C 85.703125 32.101562 85.582031 31.8125 85.335938 31.566406 C 85.105469 31.324219 84.804688 31.203125 84.4375 31.203125 C 84.039062 31.203125 83.714844 31.328125 83.472656 31.585938 C 83.226562 31.828125 83.105469 32.128906 83.105469 32.484375 C 83.105469 32.816406 83.175781 33.121094 83.320312 33.398438 C 83.464844 33.664062 83.683594 33.964844 83.972656 34.296875 L 90.035156 41.21875 L 87.550781 41.21875 L 82.855469 35.777344 C 82.289062 35.113281 81.867188 34.535156 81.589844 34.046875 C 81.324219 33.558594 81.191406 33.054688 81.191406 32.53125 C 81.191406 32.011719 81.324219 31.527344 81.589844 31.085938 C 81.855469 30.628906 82.234375 30.265625 82.722656 29.988281 C 83.210938 29.699219 83.789062 29.554688 84.453125 29.554688 C 85.085938 29.554688 85.636719 29.683594 86.105469 29.9375 C 86.570312 30.191406 86.929688 30.53125 87.1875 30.953125 C 87.441406 31.375 87.570312 31.835938 87.570312 32.332031 C 87.570312 32.898438 87.441406 33.382812 87.1875 33.78125 C 86.941406 34.179688 86.613281 34.519531 86.203125 34.796875 C 85.804688 35.074219 85.375 35.328125 84.921875 35.5625 C 84.476562 35.78125 84.054688 36.015625 83.65625 36.261719 C 83.253906 36.492188 82.929688 36.769531 82.671875 37.09375 C 82.417969 37.402344 82.289062 37.789062 82.289062 38.257812 C 82.289062 38.679688 82.4375 39.023438 82.738281 39.289062 C 83.039062 39.554688 83.496094 39.6875 84.105469 39.6875 C 84.792969 39.6875 85.402344 39.515625 85.9375 39.171875 C 86.480469 38.828125 86.929688 38.339844 87.285156 37.707031 C 87.652344 37.074219 87.898438 36.320312 88.019531 35.445312 L 89.816406 35.84375 C 89.617188 36.996094 89.242188 37.992188 88.683594 38.824219 C 88.128906 39.65625 87.453125 40.292969 86.652344 40.734375 C 85.855469 41.179688 84.972656 41.402344 84.003906 41.402344 Z M 94.769531 41.21875 L 94.769531 29.738281 L 96.785156 29.738281 L 96.785156 41.21875 Z M 102.011719 41.21875 L 98.128906 29.738281 L 100.261719 29.738281 L 104.027344 41.21875 Z M 103.109375 41.21875 L 106.773438 29.738281 L 108.875 29.738281 L 104.992188 41.21875 Z M 110.222656 41.21875 L 110.222656 29.738281 L 112.238281 29.738281 L 112.238281 41.21875 Z M 111.15625 36.59375 L 111.15625 34.761719 L 117.46875 34.761719 L 117.46875 36.59375 Z M 111.15625 31.601562 L 111.15625 29.738281 L 118.132812 29.738281 L 118.132812 31.601562 Z M 111.15625 31.601562 " fill-opacity="1" fill-rule="nonzero"/></svg>